<svg xmlns="http://www.w3.org/2000/svg" viewBox="0 0 40 40">
  <rect width="40" height="40" rx="9" fill="#ffffff"/>
  <svg x="3" y="8" width="34" height="24" viewBox="0 0 590 345" color="#2c4463">
    <g fill="none" stroke="currentColor" stroke-width="38">
        <path d="M31 318V100Q31 50 62 50Q80 50 92 72L150 180Q165 205 180 180L238 72Q250 50 268 50Q298 50 298 100V160"/>
        <path d="M515 155H445C360 155 290 175 268 235C255 278 280 326 322 326C360 326 380 298 380 268V192"/>
      </g>
      <path d="M380 140V112Q380 52 440 52H505" fill="none" stroke="#7f9c8f" stroke-width="38"/>
      <path d="M500 10L573 52L500 94Z" fill="#7f9c8f"/>
  </svg>
</svg>
